<?xml version="1.0" encoding="utf-8"?>
<!-- Generator: Adobe Illustrator 18.1.1, SVG Export Plug-In . SVG Version: 6.00 Build 0)  -->
<svg version="1.1" id="Layer_1" xmlns="http://www.w3.org/2000/svg" xmlns:xlink="http://www.w3.org/1999/xlink" x="0px" y="0px"
	 viewBox="0 0 800 800" enable-background="new 0 0 800 800" xml:space="preserve">
<ellipse id="Shadow" display="none" opacity="0.36" cx="380.2" cy="490.1" rx="186.9" ry="18.1"/>
<g id="Wheels">
	<g id="Right_Wheel">
		<rect x="193.7" y="629.9" width="4.2" height="93"/>
		<rect x="201.1" y="629.9" width="4.2" height="93"/>
		<rect x="216" y="629.9" width="4.2" height="93"/>
		<path d="M173,644.3v64.3c0,6.4,4.2,11.9,10,13.7v-91.7C177.2,632.4,173,637.8,173,644.3z"/>
		<path d="M225.6,629.9h-2.1v93h2.1c0.7,0,1.4-0.1,2.1-0.2v-92.7C227,630,226.3,629.9,225.6,629.9z"/>
		<path d="M230.9,630.9v91c5.3-2.1,9.1-7.3,9.1-13.4v-64.3C240,638.2,236.2,633,230.9,630.9z"/>
		<rect x="208.6" y="629.9" width="4.2" height="93"/>
		<path d="M187.4,629.9c-0.4,0-0.7,0-1.1,0.1v92.9c0.4,0,0.7,0.1,1.1,0.1h3.1v-93H187.4z"/>
		<path fill="#333333" d="M183,630.6v91.7c1,0.3,2.1,0.5,3.2,0.6v-92.9C185.1,630,184.1,630.2,183,630.6z"/>
		<rect x="190.5" y="629.9" fill="#333333" width="3.2" height="93"/>
		<rect x="197.9" y="629.9" fill="#333333" width="3.2" height="93"/>
		<rect x="205.4" y="629.9" fill="#333333" width="3.2" height="93"/>
		<rect x="212.8" y="629.9" fill="#333333" width="3.2" height="93"/>
		<rect x="220.3" y="629.9" fill="#333333" width="3.2" height="93"/>
		<path fill="#333333" d="M227.7,630.1v92.7c1.1-0.2,2.2-0.4,3.2-0.9v-91C229.9,630.5,228.8,630.2,227.7,630.1z"/>
	</g>
	<g id="Left_wheel">
		<rect x="633" y="629.9" width="4.2" height="93"/>
		<rect x="640.5" y="629.9" width="4.2" height="93"/>
		<rect x="655.4" y="629.9" width="4.2" height="93"/>
		<path d="M612.3,644.3v64.3c0,6.4,4.2,11.9,10,13.7v-91.7C616.5,632.4,612.3,637.8,612.3,644.3z"/>
		<path d="M664.9,629.9h-2.1v93h2.1c0.7,0,1.4-0.1,2.1-0.2v-92.7C666.3,630,665.7,629.9,664.9,629.9z"/>
		<path d="M670.2,630.9v91c5.3-2.1,9.1-7.3,9.1-13.4v-64.3C679.3,638.2,675.6,633,670.2,630.9z"/>
		<rect x="647.9" y="629.9" width="4.2" height="93"/>
		<path d="M626.7,629.9c-0.4,0-0.7,0-1.1,0.1v92.9c0.4,0,0.7,0.1,1.1,0.1h3.1v-93H626.7z"/>
		<path fill="#333333" d="M622.4,630.6v91.7c1,0.3,2.1,0.5,3.2,0.6v-92.9C624.5,630,623.4,630.2,622.4,630.6z"/>
		<rect x="629.8" y="629.9" fill="#333333" width="3.2" height="93"/>
		<rect x="637.3" y="629.9" fill="#333333" width="3.2" height="93"/>
		<rect x="644.7" y="629.9" fill="#333333" width="3.2" height="93"/>
		<rect x="652.1" y="629.9" fill="#333333" width="3.2" height="93"/>
		<rect x="659.6" y="629.9" fill="#333333" width="3.2" height="93"/>
		<path fill="#333333" d="M667,630.1v92.7c1.1-0.2,2.2-0.4,3.2-0.9v-91C669.2,630.5,668.1,630.2,667,630.1z"/>
	</g>
</g>
<path id="wind_shield" fill="#B6E4FA" d="M597.6,322c-1.5-5.4-8.3-9.8-15.1-9.8H263.2c-6.8,0-13.6,4.3-15.1,9.8L212,451.1
	c-2.3,8.1,2.8,14.7,11.3,14.7h399c8.5,0,13.6-6.7,11.3-14.7L597.6,322z"/>
<path id="roof" fill="#1C75BC" d="M665.1,467l-40.4-135.3c-5.7-19.1-24.4-33.7-42.1-33.7H269.8c-17.7,0-36.4,14.7-42.1,33.7
	L187.2,467c-8.8,29.5,3,55,26.9,55h424C662.1,522,673.9,496.5,665.1,467z M622.1,465.8H225.3c-8.5,0-13.5-6.7-11.3-14.7L249.9,322
	c1.5-5.4,8.2-9.8,15-9.8h317.5c6.8,0,13.5,4.3,15,9.8l35.9,129.1C635.6,459.1,630.6,465.8,622.1,465.8z"/>
<path id="body" fill="#00AEEF" d="M699,662.3H153.3c-9,0-16.4-7.3-16.7-16.3l-3.2-117.2c-0.8-29.2,22-52.9,50.8-52.9H668
	c28.9,0,51.6,23.8,50.8,52.9L715.7,646C715.5,655,708,662.3,699,662.3z"/>
<g id="reflection" opacity="0.69">
	<polygon display="none" fill="none" points="334.1,312.3 247.5,465.8 256.4,465.8 343,312.3 	"/>
	<polygon fill="#F2F2F2" points="315.4,312.3 228.8,465.8 247.5,465.8 334.1,312.3 	"/>
	<polygon fill="#F2F2F2" points="343,312.3 256.4,465.8 266.1,465.8 352.7,312.3 	"/>
</g>
<g id="Lights">
	<g id="Left_Light">
		<circle fill="#58595B" cx="198.7" cy="544.6" r="30.8"/>
		<radialGradient id="SVGID_1_" cx="198.6517" cy="544.6278" r="25.1624" gradientUnits="userSpaceOnUse">
			<stop  offset="0.1197" style="stop-color:#FFFFFF"/>
			<stop  offset="0.1619" style="stop-color:#FFFEF7;stop-opacity:0.9976"/>
			<stop  offset="0.3826" style="stop-color:#FFFCE0;stop-opacity:0.985"/>
			<stop  offset="0.5987" style="stop-color:#FFFBCF;stop-opacity:0.9727"/>
			<stop  offset="0.8065" style="stop-color:#FFFAC5;stop-opacity:0.9608"/>
			<stop  offset="0.9966" style="stop-color:#FFF9C2;stop-opacity:0.95"/>
		</radialGradient>
		<circle fill="url(#SVGID_1_)" cx="198.7" cy="544.6" r="25.2"/>
	</g>
	<g id="Right_Light">
		<circle fill="#58595B" cx="653.7" cy="544.6" r="30.8"/>
		<radialGradient id="SVGID_2_" cx="653.665" cy="544.6278" r="25.1624" gradientUnits="userSpaceOnUse">
			<stop  offset="0.1197" style="stop-color:#FFFFFF"/>
			<stop  offset="0.1619" style="stop-color:#FFFEF7;stop-opacity:0.9976"/>
			<stop  offset="0.3826" style="stop-color:#FFFCE0;stop-opacity:0.985"/>
			<stop  offset="0.5987" style="stop-color:#FFFBCF;stop-opacity:0.9727"/>
			<stop  offset="0.8065" style="stop-color:#FFFAC5;stop-opacity:0.9608"/>
			<stop  offset="0.9966" style="stop-color:#FFF9C2;stop-opacity:0.95"/>
		</radialGradient>
		<circle fill="url(#SVGID_2_)" cx="653.7" cy="544.6" r="25.2"/>
	</g>
</g>
<path fill="#58595B" d="M134.4,637.5h583.5c4.1,0,7.5,3.4,7.5,7.5v9.8c0,4.1-3.4,7.5-7.5,7.5H134.4c-4.1,0-7.5-3.4-7.5-7.5V645
	C126.9,640.9,130.3,637.5,134.4,637.5z"/>
<text transform="matrix(1 0 0 1 310.3688 389.6666)" display="none" fill="#FFFFFF" font-family="'ArialRoundedMTBold'" font-size="37">CoolRide</text>
<g id="air">
	<path fill="#939598" stroke="#6D6E71" stroke-width="4" stroke-miterlimit="10" d="M505.7,624.7H346.6c-13,0-29.3-6.9-37.4-16.5
		l-17.2-20.4c-12.6-14.9-8.4-29.2,11.6-29.2h245.2c20,0,24.2,14.3,11.6,29.2l-17.2,20.4C535,617.8,518.7,624.7,505.7,624.7z"/>
	<g>
		<path fill="#4D4D4D" d="M287.9,563.5c-1.4,1.5-2.3,3.2-2.7,5.1h282c-0.5-1.9-1.4-3.6-2.7-5.1H287.9z"/>
		<path fill="#4D4D4D" d="M285.8,577.1h280.8c0.6-1.8,0.9-3.5,0.9-5.1H284.8C284.9,573.6,285.2,575.3,285.8,577.1z"/>
		<path fill="#4D4D4D" d="M290.3,585.5H562c1.3-1.7,2.4-3.4,3.2-5.1h-278C288,582.1,289,583.8,290.3,585.5z"/>
		<polygon fill="#4D4D4D" points="297.3,593.9 555,593.9 559.3,588.8 293,588.8 		"/>
		<polygon fill="#4D4D4D" points="304.5,602.4 547.9,602.4 552.2,597.3 300.2,597.3 		"/>
		<path fill="#4D4D4D" d="M309.1,607.9c0.8,1,1.8,2,2.8,2.9h228.5c1-0.9,1.9-1.9,2.8-2.9l1.9-2.2H307.3L309.1,607.9z"/>
		<path fill="#4D4D4D" d="M324.9,619.3h202.6c3.2-1.5,6.2-3.2,8.9-5.1H316C318.7,616.1,321.7,617.8,324.9,619.3z"/>
	</g>
</g>
</svg>
